<?xml version="1.0" encoding="utf-8"?>
<!-- Generator: Adobe Illustrator 22.1.0, SVG Export Plug-In . SVG Version: 6.00 Build 0)  -->
<svg version="1.1" xmlns="http://www.w3.org/2000/svg" xmlns:xlink="http://www.w3.org/1999/xlink" x="0px" y="0px"
	 viewBox="0 0 1500 100" style="enable-background:new 0 0 1500 100;" xml:space="preserve">
<style type="text/css">
	.st0{display:none;}
	.st1{display:inline;}
	.st2{clip-path:url(#SVGID_2_);fill:#F47E20;}
	.st3{clip-path:url(#SVGID_2_);fill:#87D5F7;}
	.st4{clip-path:url(#SVGID_2_);}
	.st5{clip-path:url(#SVGID_2_);fill:#3C6F36;}
	.st6{display:inline;fill:#668089;}
	.st7{display:inline;fill:#545F63;}
	.st8{display:inline;fill:#87D5F7;}
	.st9{fill:#668089;}
	.st10{fill:#545F63;}
	.st11{display:inline;fill:#2D5128;}
	.st12{display:inline;fill:#788C8C;}
	.st13{display:inline;fill:#3C6F36;}
</style>
<g id="Layer_4" class="st0">
	<g class="st1">
		<defs>
			<rect id="SVGID_1_" x="36.4" y="-121.6" width="97.2" height="97.2"/>
		</defs>
		<clipPath id="SVGID_2_">
			<use xlink:href="#SVGID_1_"  style="overflow:visible;"/>
		</clipPath>
		<path class="st2" d="M133.6-73c0,26.8-21.8,48.6-48.6,48.6S36.4-46.2,36.4-73s21.8-48.6,48.6-48.6S133.6-99.8,133.6-73"/>
		<path class="st3" d="M130.5-73c0,25.1-20.4,45.5-45.5,45.5S39.5-47.9,39.5-73s20.4-45.5,45.5-45.5S130.5-98.1,130.5-73"/>
		<path class="st4" d="M130.5-73h-0.2c0,12.5-5.1,23.8-13.3,32S97.5-27.7,85-27.7S61.2-32.8,53-41S39.7-60.5,39.7-73
			s5.1-23.8,13.3-32s19.5-13.3,32-13.3s23.8,5.1,32,13.3s13.3,19.5,13.3,32H130.5h0.2c0-25.2-20.4-45.7-45.7-45.7
			c-25.2,0-45.7,20.4-45.7,45.7S59.8-27.3,85-27.3s45.7-20.4,45.7-45.7H130.5z"/>
		<path class="st5" d="M127.6-57.1c-6.5,17.2-23.1,29.5-42.6,29.5c-19.5,0-36.1-12.3-42.6-29.5C44.8-57,124.3-57.1,127.6-57.1"/>
		<path class="st4" d="M127.6-57.1l-0.2-0.1c-6.4,17.2-23,29.4-42.4,29.4c-19.4,0-36-12.2-42.4-29.4L42.4-57v0.2
			c2.4,0,81.9,0,85.2,0V-57.1l-0.2-0.1L127.6-57.1v-0.2c-3.3,0-82.8,0-85.2,0h-0.3l0.1,0.2C48.7-39.7,65.4-27.3,85-27.3
			c19.6,0,36.3-12.3,42.8-29.6l0.1-0.2h-0.3V-57.1z"/>
	</g>
	<polygon class="st6" points="98.9,-105.8 85,-81.9 85.1,-81.9 99,-58 71.2,-58 71.1,-58 98.9,-58 126.6,-58 112.7,-81.9 	"/>
	<polygon class="st6" points="71.2,-105.8 57.3,-81.8 43.4,-58 71.1,-58 85,-81.8 85,-81.9 	"/>
	<polygon class="st7" points="85,-81.9 85,-81.8 71.1,-57.9 71.2,-57.9 99,-57.9 85.1,-81.9 	"/>
	<polygon class="st1" points="98.9,-57.5 98.9,-57.9 71.9,-57.9 85.4,-81.5 98.9,-105 112.3,-81.5 125.8,-57.9 98.9,-57.9 
		98.9,-57.5 98.9,-57 127.5,-57 113.2,-82 98.9,-106.9 84.6,-82 70.3,-57 98.9,-57 	"/>
	<polygon class="st1" points="71.2,-57.5 71.2,-57.9 44.3,-57.9 57.7,-81.5 71.2,-105 84.7,-81.5 98.1,-57.9 71.2,-57.9 71.2,-57.5 
		71.2,-57 99.8,-57 85.5,-82 71.2,-106.9 56.9,-82 42.6,-57 71.2,-57 	"/>
</g>
<g id="Layer_2" class="st0">
	<rect class="st8" width="1500" height="100"/>
</g>
<g id="Layer_1">
	<path class="st9" d="M1465,9.1c-0.7-2.9-1.2-5.1-1.4-5.1c-0.2,0-0.8,2.3-1.4,5.3c-2.4,0.2-4.5,0.5-6.2,0.7c-6,0.7-11.3,2-16.2,3.6
		c-1-4.6-1.9-8.6-2.2-8.6c-0.3,0-1.4,5.1-2.5,10.3c-8.8,3.6-16.8,8.6-26.1,14.7c-1.1-4.5-2.3-9-2.6-9c-0.4,0-2.3,7.7-3.5,13.1
		c-0.3,0.2-0.6,0.4-0.9,0.6c-1.1-4.4-2.3-8.7-2.5-8.7c-0.4,0-2.2,7.2-3.4,12.5c-2.2,1.4-4.5,2.9-7,4.4c-21.4,13.2-47,29.2-78,38
		c-15.1,4.3-43.9,4.6-101,5c-59.1,0.4-75.9-1.2-89-3c-26.2-3.5-44.9-6.1-67-16c-35.9-16.1-40.9-34-65-48c-4.2-2.4-8.4-4.5-12.9-6.1
		c-0.7-2.8-1.4-4.9-1.6-4.9c-0.2,0-0.7,1.6-1.3,3.9c-0.4-0.1-0.7-0.2-1.1-0.3c-0.9-3.5-1.8-6.5-2-6.5c-0.2,0-0.9,2.4-1.7,5.4
		c-1-0.3-2-0.5-3-0.7C964.7,7.1,964,5,963.8,5c-0.2,0-0.7,1.8-1.4,4.2c-20.5-3.7-47.1-0.9-88.8,8.5c-1-4-2-7.6-2.3-7.6
		c-0.3,0-1.4,4.3-2.5,8.7c-5.7,1.3-11.6,2.7-17.8,4.2c-6.2,1.5-12.1,3-17.7,4.4c-1-3.9-2-7.4-2.2-7.4c-0.3,0-1.4,4.2-2.5,8.6
		c-2.2,0.6-4.2,1.1-6.3,1.7c-1.1-4.3-2.2-8.4-2.5-8.4c-0.3,0-1.6,5-2.8,9.8c-14.4,4-26.5,7.6-36.8,11c-1.1-5.4-2.3-10.8-2.6-10.8
		c-0.3,0-1.8,6.7-2.9,12.6c-50.1,16.9-56,26.5-96.7,31.4c-67.2,8.1-126.8-8.8-240.1-42c-0.5-1.8-0.9-3-1.1-3c-0.1,0-0.5,1-0.9,2.5
		c-1.6-0.5-3.3-1-5-1.5c-0.7-0.2-1.4-0.4-2-0.6c-0.7-2.5-1.3-4.4-1.5-4.4c-0.2,0-0.6,1.5-1.2,3.6c-5.2-1.5-9.9-3-14.4-4.3
		c-0.7-2.5-1.2-4.3-1.4-4.3c-0.2,0-0.6,1.4-1.2,3.5c-2.1-0.7-4.2-1.3-6.2-1.9c-0.7-3.2-1.3-5.6-1.5-5.6c-0.2,0-0.7,2-1.3,4.7
		C373.5,14.4,358.3,10,333,10c-3.8,0-7.5,0.1-11,0.3c-0.9-3.4-1.7-6.2-1.9-6.2c-0.2,0-1.1,3-2,6.5c-19.9,1.5-34.7,6-47.3,11.4
		c-1-4.7-2-9-2.2-9c-0.3,0-1.6,5.6-2.7,11.2c-0.8,0.4-1.6,0.8-2.4,1.1c-1-3.9-1.9-7.2-2.2-7.2c-0.3,0-1.6,5-2.7,9.7
		C237.1,38.6,219.3,50.3,185,49c-46.4-1.7-86.7-25.6-123.5-34.5c-0.6-2-1-3.4-1.2-3.4c-0.1,0-0.5,1.2-1,2.9
		c-1.2-0.3-2.5-0.5-3.7-0.8c-0.5-1.9-1-3.2-1.1-3.2c-0.1,0-0.5,1.1-1,2.8c-1.7-0.3-3.3-0.6-5-0.8c-0.2-0.6-0.4-1-0.4-1
		c-0.1,0-0.2,0.3-0.4,0.8c-3.8-0.5-7.6-0.7-11.3-0.7C35.6,7.8,34.7,5,34.5,5c-0.2,0-1,2.9-1.9,6.3c-0.9,0.1-1.8,0.1-2.7,0.2
		c-0.8-3.1-1.5-5.5-1.7-5.5c-0.2,0-1,2.6-1.8,5.9c-3.1,0.5-6.2,1.1-9.3,2.1c-5.8,1.7-12,4.5-17,10c0,0,0,17,0,76
		c159,0,1343,0,1500,0c0-12,0-46,0-82C1490.5,9.1,1475.9,8.4,1465,9.1z"/>
</g>
<g id="Layer_3" class="st0">
</g>
<g id="Layer_6" class="st0">
	<g class="st1">
		<path class="st10" d="M1499,36c0-9.2-20.6,58.9-37,56c-75.6-13.5-132.3-20.2-189.8-21.3c-1.1-5.4-3.3-13.7-3.7-13.7
			c-0.4,0-2.5,8.3-3.6,13.6c-1.3,0-2.5,0-3.8,0c-1.3-7.1-5.3-22.6-5.9-22.6c-0.6,0-4.5,15.5-5.9,22.6c-0.2,0-0.4,0-0.5,0
			c-0.6-3.2-2.3-9.8-2.6-9.8c-0.2,0-0.8,2.2-1.4,4.7c-1.2-5-2.7-10.5-3-10.5c-0.4,0-3.1,10.9-4.1,15.8c-3.6,0.1-7.1,0.2-10.7,0.3
			v-3.8c0.5-0.1,0.9-0.2,1.4-0.3c1,0.9,2.5,1.5,4.1,1.5c3,0,5.5-1.9,5.5-4.3c0-1.3-0.7-2.4-1.8-3.2c0.1-0.4,0.2-0.8,0.2-1.2
			c0-2.4-2.5-4.3-5.5-4.3c-0.1,0-0.3,0-0.4,0c-0.7-1.7-2.8-3-5.2-3c-3,0-5.5,1.9-5.5,4.3c0,0,0,0.1,0,0.1c0,0-0.1,0-0.1,0
			c-2,0-3.7,0.8-4.7,2.1c-2.3,0.5-4,2.2-4,4.2c0,0.1,0,0.2,0,0.3c-0.5,1.3-1.6,5.7-2.2,8.5c-0.2,0-0.4,0-0.6,0
			c-1.1-6.4-5.5-23.8-6.1-23.8c-0.5,0-2.6,8.1-4.3,15.3c-0.7-2.5-1.2-4.3-1.4-4.3c-0.4,0-2.5,8.2-3.6,13.6
			c-52.3,3.1-111.3,9.9-188.9,19.4c-39,4.8-64.2,7.1-82.6,7.7c286.8,0.1,537.3,0.3,577.6,0.3C1500.8,93.5,1499,41,1499,36z
			 M1212.1,65.6c1,1,2.6,1.7,4.4,1.7c0.6,0,1.1-0.1,1.6-0.2c1,1.1,2.6,1.8,4.4,1.9v2.2c-3,0.1-5.9,0.2-8.9,0.3
			C1213.2,69.7,1212.6,67.4,1212.1,65.6z"/>
		<path class="st10" d="M921.4,99.7c-5.6,0-11.3,0-17,0C909.4,99.9,915,99.9,921.4,99.7z"/>
		<path class="st10" d="M688.9,46.2c0-0.2,0.1-0.4,0.1-0.6c0-0.9-0.5-1.7-1.3-2.3c0.1-0.3,0.2-0.6,0.2-0.9c0-1.7-1.7-3.1-3.9-3.1
			c-0.1,0-0.2,0-0.3,0c-0.5-1.2-2-2.1-3.7-2.1c-2,0-3.6,1.2-3.8,2.7c-0.8-3.4-1.4-6.1-1.6-6.1c-0.2,0-0.9,2.7-1.6,6.2
			c-18.1-6.8-34.8-12.8-51.3-16.9c-0.9-4.5-1.9-8.3-2.1-8.3c-0.2,0-1,3.3-1.9,7.4c-4.2-1-8.3-1.8-12.5-2.4c-0.2-0.3-0.5-0.6-0.9-0.8
			c0.1-0.3,0.2-0.7,0.2-1.1c0-2.1-2.2-3.9-4.9-3.9c-0.1,0-0.2,0-0.4,0c-0.6-1.5-2.5-2.6-4.6-2.6c-2.7,0-4.9,1.7-4.9,3.9
			c0,0,0,0.1,0,0.1c0,0-0.1,0-0.1,0c-1.8,0-3.3,0.7-4.1,1.8c-0.5,0.1-1,0.3-1.5,0.6c-0.9,0-1.9,0-2.8-0.1
			c-1.1-5.4-2.3-10.8-2.6-10.8c-0.3,0-1.5,5.4-2.6,10.9c-8.7,0.2-17.6,1.2-26.8,3.2c-0.9-3.3-1.7-6-1.9-6c-0.2,0-1.1,3.2-2.1,6.9
			c-3.7,0.9-7.5,1.9-11.3,3.1c-22.8,7-36.1,16.1-54.6,24.9c-1.2-5.4-3.2-12.9-3.5-12.9c-0.5,0-3.4,11.9-4.2,16.4
			c-5.6,2.4-11.8,4.8-18.8,7.1c-1.2-5-2.7-10.5-3-10.5c-0.4,0-2.2,7.2-3.4,12.5C440,64.4,433,66.3,425,68c-42.3,9.2-83.3,18.1-124,1
			c-61.9-26-64.2-56.7-94-61c-7-1-23.5-8.2-39,7c-11.5,11.3-26.1,16.5-41.8,18.5c-1.2-5.4-3.3-13.5-3.7-13.5
			c-0.4,0-2.7,8.9-3.8,14.2c-3.5,0.2-7.1,0.4-10.7,0.4c-0.6-0.9-1.3-1.7-2.2-2.3c0.3-0.7,0.4-1.4,0.4-2.2c0-4.3-4.4-7.7-9.7-7.7
			c-0.2,0-0.5,0-0.7,0c-1.3-3.1-4.9-5.3-9.2-5.3c-5.4,0-9.7,3.5-9.7,7.7c0,0.1,0,0.1,0,0.2c-0.1,0-0.2,0-0.3,0
			c-3.5,0-6.6,1.5-8.3,3.7c-2.1,0.5-3.9,1.5-5.2,2.8c-1.6-0.1-3.2-0.3-4.8-0.4c-1.1-5.4-3.4-14-3.8-14c-0.4,0-2.4,8.1-3.6,13.5
			c-6.6-0.4-12.9-0.7-18.8-0.4c-1.2-4.8-2.6-10.1-2.9-10.1c-0.3,0-1.8,5.5-2.9,10.5C14.7,31.7,5.2,35.2-1,43c0,18,1,43,0,57
			c110.4-0.6,535.1-0.5,905.4-0.3c-25.6-1-37.2-6.6-73.4-12.7C771.2,77,726.7,60.6,688.9,46.2z"/>
	</g>
</g>
<g id="Layer_5" class="st0">
	<path class="st11" d="M1489.2,40c-1.4,0-7.5,14.4-12.7,27.9c-4.8-12.2-10.1-23.9-11.3-23.9c-0.7,0-2.8,4.1-5.4,9.9
		c-2.6-18.8-6-39.9-6.7-39.9c-0.8,0-5,27.5-7.7,47.8c-4.8-12.2-10-23.8-11.3-23.8c-1.6,0-9.9,19.9-15.3,34.9
		c-5.4-14.7-13.2-32.9-14.7-32.9c-2.3,0-18.5,41.4-19.9,49.7c-9.4-0.4-19.2-0.9-29.4-1.3c-2.3-10.7-17.5-48.4-19.7-48.4
		c-1.3,0-6.8,12.7-11.7,25.4c-2.6-20.4-7.5-52.4-8.4-52.4c-0.9,0-5.5,31-8.1,51.4c-2.6-6.3-5.1-11.4-5.7-11.4c-0.6,0-2.7,4.4-5.1,10
		c-3.6-15-8-31.2-8.9-31.2c-1,0-5.6,17.3-9.2,32.8c-2.2-8.3-4.4-15.6-4.9-15.6c-1.1,0-8.5,29-9.7,36.9c-2.9,0-5.8-0.1-8.7-0.1
		c0-1,0-1.9,0-2.1c2.7,0.3,7.6,1.1,8.3,0.1c1.1-1.5-8.6-38.8-9.8-38.8s-10.8,37.7-9.8,38.8c0.6,0.7,4.8,0.1,7.5-0.1
		c0,0.4,0,1.2,0,2.1c-12.7-0.1-71.1,0.6-77.4,0.8c0-1.2,0-2.3,0-2.6c5.4,0.4,15.3,1.4,16.7,0.2c2.2-2-17.3-51.2-19.8-51.2
		c-0.9,0-3.9,6.2-7.3,14.4c-2.4-16.9-5.2-33.4-5.8-33.4c-0.9,0-5.8,32.5-8.3,52.9c-5.3-14.1-12.2-29.9-13.6-29.9
		c-1.1,0-5.3,9.4-9.6,20.1c-2.4-2.7-6.2-4.5-10.6-4.5c-0.3,0-0.7,0-1,0c-1.7-4.4-6.7-7.6-12.5-7.6c-7.3,0-13.2,5-13.2,11.1
		c0,0.1,0,0.2,0,0.3c-0.1,0-0.2,0-0.3,0c-4.7,0-8.9,2.1-11.2,5.3c-3.1,0.7-5.7,2.3-7.4,4.5c-2.6-20.4-7.4-51.1-8.2-51.1
		c-0.8,0-5,27.5-7.7,47.8c-0.8-0.1-1.6-0.2-2.5-0.2c-0.3,0-0.7,0-1,0c-1.7-4.4-6.7-7.6-12.5-7.6c-7.3,0-13.2,5-13.2,11.1
		c0,0.1,0,0.2,0,0.3c-0.1,0-0.2,0-0.3,0c-4.7,0-8.9,2.1-11.2,5.3c-4.1,0.9-7.4,3.5-8.8,6.8C999,63.5,988,37,986.2,37
		c-1.2,0-6.5,12-11.3,24.4c-0.1,0-0.3,0-0.4,0c-0.2,0-0.5,0-0.7,0c-1.3-3.1-4.9-5.3-9.2-5.3c-5.4,0-9.7,3.5-9.7,7.7
		c0,0.1,0,0.1,0,0.2c-0.1,0-0.2,0-0.3,0c-2.7,0-5.2,0.9-6.9,2.3C944.9,56,941.8,45,941.1,45c-1.3,0-10.8,37.7-9.8,38.8
		c0.6,0.7,4.8,0.1,7.5-0.1c0,0.8,0,3.3,0,4.5c-8.2-0.1-16.8-0.1-25.8-0.2c0-0.4,0-0.8,0-0.9c3,0.2,8.4,0.8,9.2,0.1
		c1.2-1.1-9.6-28.2-10.9-28.2s-12,27.4-10.9,28.2c0.6,0.5,5.3,0.1,8.3-0.1c0,0.2,0,0.5,0,0.9c-5.9,0-12-0.1-18.3-0.1
		c0-0.4,0-0.8,0-0.9c1.8,0.1,5.2,0.4,5.7,0c0.7-0.5-5.9-14.1-6.7-14.1s-7.4,13.7-6.7,14.1c0.4,0.3,3.3,0,5.1,0c0,0.2,0,0.5,0,0.8
		c-3,0-6,0-9.1-0.1c-0.2-0.2-0.5-0.4-0.7-0.6c0.3-0.7,0.4-1.4,0.4-2.2c0-3.2-2.5-6-6.1-7.1c-1.2-4.3-2.5-8.6-2.9-8.6
		c-0.3,0-1.3,3.2-2.3,6.8c-1.7-2.4-4.8-4-8.5-4c-2.6,0-4.9,0.8-6.7,2.1c-1.2-2.8-2.2-4.9-2.5-4.9c-0.5,0-3.2,6.5-5.1,11.5
		c-1.6,0.6-3,1.6-4,2.9c-2.7,0.6-4.9,2-6.1,3.9c-2.7,0-5.4,0-8.1,0c0-1,0-2.2,0-2.5c3,0.2,8.4,0.8,9.2,0.1
		c1.2-1.1-9.6-28.2-10.9-28.2s-12,27.4-10.9,28.2c0.6,0.5,5.3,0.1,8.3-0.1c0,0.4,0,1.5,0,2.4c-26.1-0.1-54.8-0.2-86.2-0.3
		c0-1.3,0-2.8,0-3.1c3.7,0.3,10.5,1,11.5,0.1c1.5-1.4-11.9-35.3-13.7-35.3s-15,34.3-13.7,35.3c0.8,0.6,6.7,0.1,10.4-0.1
		c0,0.5,0,1.9,0,3.1c-18.8-0.1-38.6-0.1-59.4-0.2v-6.4c0.9-0.1,1.7-0.3,2.5-0.6c1.8,1.6,4.4,2.6,7.3,2.6c5.4,0,9.7-3.5,9.7-7.7
		c0-2.3-1.3-4.3-3.2-5.7c0.3-0.7,0.4-1.4,0.4-2.2c0-4.3-4.4-7.7-9.7-7.7c-0.2,0-0.5,0-0.7,0c-1.3-3.1-4.9-5.3-9.2-5.3
		c-5.4,0-9.7,3.5-9.7,7.7c0,0.1,0,0.1,0,0.2c-0.1,0-0.2,0-0.3,0c-3.5,0-6.6,1.5-8.3,3.7c-1.7,0.4-3.3,1.1-4.5,2.1
		c0-0.2,0.1-0.5,0.1-0.7c0-4.3-3.5-7.7-7.7-7.7c-0.2,0-0.4,0-0.6,0c-1-3.1-3.9-5.3-7.3-5.3c-4.3,0-7.7,3.5-7.7,7.7
		c0,0.1,0,0.1,0,0.2c-0.1,0-0.1,0-0.2,0c-2.8,0-5.2,1.5-6.6,3.7c-0.5,0.2-1.1,0.4-1.6,0.6c-3.6-9.4-8-19.3-8.9-19.3
		c-1.3,0-8.7,18.4-12.1,28.6c-2.2-11-8.1-32.6-9-32.6c-0.6,0-3.3,9.3-5.7,18.8c-1.4-2-3.7-3.4-6.4-3.4c-0.2,0-0.4,0-0.6,0
		c-1-3.1-3.9-5.3-7.3-5.3c-4.3,0-7.7,3.5-7.7,7.7c0,0.1,0,0.1,0,0.2c-0.1,0-0.1,0-0.2,0c-1.7,0-3.3,0.6-4.6,1.5
		c-3.7-16.5-9.4-37.7-10.5-37.7c-1,0-5.6,17.2-9.2,32.7c-1.2-0.7-2.5-1.1-4-1.1c-0.2,0-0.4,0-0.6,0c-1-3.1-3.9-5.3-7.3-5.3
		c-4.3,0-7.7,3.5-7.7,7.7c0,0.1,0,0.1,0,0.2c-0.1,0-0.1,0-0.2,0c-1.1,0-2.2,0.3-3.1,0.7C502.7,45.5,495.6,29,494.2,29
		c-1.6,0-10.1,20.4-15.4,35.4C476.2,44.2,471,10,470.1,10c-1,0-6.7,38.8-9,58.2c-3.5-16.7-10.7-44.4-11.9-44.4
		c-1.5,0-11.2,39.6-13.4,52.6C433.4,65.1,428,45,427.1,45c-0.8,0-4.5,13.6-7.1,24.7C415.2,54.9,404,28,402.2,28
		c-1.8,0-11.7,24.4-16.9,39.5C383.2,48.6,377.1,8,376.1,8c-0.8,0-5.3,29.5-7.9,49.9c-5.3-14.3-12.5-30.9-14-30.9
		c-1.4,0-7.9,15.2-13.1,29c-0.9-0.4-2-0.6-3-0.6c-0.2,0-0.4,0-0.6,0c-1-3.1-3.9-5.3-7.3-5.3c-3.5,0-6.4,2.3-7.4,5.4
		c-3.7-15.7-8.6-33.7-9.6-33.7c-1.7,0-15,55-13.7,56.6c0.8,1,6.7,0.2,10.4-0.2c0,0.9,0,3.5,0,5.5c-13.8-0.5-28-1-42.9-1.7
		c-67.2-3-127.6-6.8-178.6-10.6V59.6c1.2-0.2,2.4-0.6,3.5-1.1c2.5,2.9,6.2,4.7,10.3,4.7c7.6,0,13.8-6.2,13.8-13.8
		c0-4.1-1.8-7.7-4.6-10.3c0.4-1.2,0.6-2.5,0.6-3.9c0-7.6-6.2-13.8-13.8-13.8c-0.4,0-0.7,0-1,0.1C95.3,16,90.1,12,84,12
		c-7.6,0-13.8,6.2-13.8,13.8c0,0.1,0,0.2,0,0.4c-0.1,0-0.2,0-0.4,0c-5,0-9.3,2.6-11.7,6.6C52.3,34.3,48,39.7,48,46
		c0,7.6,6.2,13.8,13.8,13.8c1.4,0,2.8-0.2,4.1-0.6c2.4,3.5,6.5,5.9,11,6v5.3c-16.3-1.3-31.5-2.5-45.6-3.7c0-2.2,0-5.9,0-6.5
		c3.7,0.5,10.5,1.6,11.5,0.2c1.5-2.2-11.9-56.6-13.7-56.6s-15,55-13.7,56.6c0.8,1,6.7,0.2,10.4-0.2c0,1,0,4.1,0,6.1
		C16.8,65.5,8.1,64.7,0,64c0,5,0,18,0,36c107.4,0,1496.2,0,1500,0c0-3.9,0-23,0.1-37.1C1495.4,51.1,1490.4,40,1489.2,40z
		 M1154.7,84.6c0,0.1,0,0.2,0,0.3C1154.7,84.8,1154.7,84.7,1154.7,84.6C1154.7,84.6,1154.7,84.6,1154.7,84.6z M1158.6,84.4
		c2.3-0.1,4.8-0.3,6.8-0.4c0,0.5,0,1.6,0,2.8c-2.3,0.1-4.5,0.2-6.8,0.2C1158.6,86.1,1158.6,85.2,1158.6,84.4z M1080.2,83.4
		c1.4,0,2.7-0.2,3.9-0.5c2.3,2.8,6.2,4.7,10.6,4.8v2c-6.2,0-14.6-0.1-27.8-0.3c0.7-1.4,1.1-2.9,1.1-4.4c0-0.1,0-0.3,0-0.4
		c1.4,0.1,2.6,0,2.9-0.8c0.1-0.3,0.1-1.6-0.1-3.7C1073.2,82.2,1076.5,83.4,1080.2,83.4z M1005.5,88.8c-0.8,0-1.5,0-2.3,0
		c0.8,0,1.5-0.1,2-0.3C1005.3,88.6,1005.4,88.7,1005.5,88.8z M999,88.7c-3.1,0-6.4-0.1-9.7-0.1c0-0.3,0-0.5,0-0.6
		C992,88.2,995.7,88.6,999,88.7z M981.4,88c0,0.1,0,0.3,0,0.6c-2.6,0-5.3,0-8-0.1C976.1,88.4,979.1,88.1,981.4,88z M942.6,83.7
		c2.7,0.3,7.6,1.1,8.3,0.1c0.1-0.1,0.1-0.6,0-1.2c0.2,0,0.5-0.1,0.7-0.1c1.7,2,4.6,3.3,7.8,3.4v2.5c-5.4,0-11-0.1-16.8-0.1
		C942.6,86.8,942.6,84.1,942.6,83.7z M617.9,82.3c0.2-0.1,0.1-0.7,0-1.5c0.4-0.1,0.8-0.1,1.1-0.3c1.4,2,3.6,3.3,6.2,3.4V87
		c-6.4,0-12.7,0-18.8,0c0-1,0-4.3,0-4.8C610.1,82.5,616.9,83.2,617.9,82.3z M590.5,82.3C590.5,82.3,590.5,82.3,590.5,82.3
		c0.8,0.7,6.7,0.1,10.4-0.1c0,0.9,0,4.2,0,4.8c-5.5,0-11,0-16.3,0c0-1.2,0-4.7,0-5.2C586.3,81.9,588.7,82.2,590.5,82.3z M567.5,79.1
		c1.4,1.6,3.4,2.6,5.7,2.6c0,0,0,0.1,0,0.1c0.6,0.7,4.8,0.1,7.5-0.1c0,1,0,4.5,0,5.2c-5.2,0-10.2,0-15.2,0v-7.1
		C566.3,79.6,566.9,79.4,567.5,79.1z M553.9,81.4c0.1-0.1,0.1-0.4,0.1-0.8c1.3,1.3,3.2,2.1,5.2,2.2v4c-5.7,0-11.3,0-16.8,0
		c0-2.2,0-5,0-5.6C546.1,81.7,552.9,82.8,553.9,81.4z M523.5,77.1c0.8,0.9,1.9,1.7,3.1,2.1c-0.2,1.3-0.2,2-0.1,2.2
		c0.8,1,6.7,0.2,10.4-0.2c0,0.9,0,3.6,0,5.5c-5.2,0-10.4,0-15.4,0v-9C522.3,77.6,522.9,77.4,523.5,77.1z M513.2,80.5
		c0.6,0.2,1.3,0.3,2,0.3v5.9c-6.1,0-12.1,0-17.9-0.1c0-1.7,0-6,0-6.7C502.1,80.4,510.3,81.2,513.2,80.5z M474.2,79.2
		c-0.1,0.6,0,0.9,0.1,1c1.2,0.9,9.7,0.1,15.1-0.2c0,1.2,0,5.4,0,6.6c-6.1,0-12-0.1-17.8-0.1c0-2.7,0-7.2,0-8
		C472.4,78.7,473.3,79,474.2,79.2z M462.9,80.4c0.1-0.1,0.1-0.5,0.1-1.1c1.5-0.1,3.3-0.5,4.8-0.8c0,1.4,0,5.7,0,8
		c-5.6,0-11-0.1-16.4-0.1c0-2.2,0-5.6,0-6.2C455.1,80.7,461.9,81.8,462.9,80.4z M436.9,83.8c0.2-0.2,0.1-1.3-0.2-3
		c2.1,0.2,6.3-0.3,9.2-0.6c0,1,0,4.2,0,6.1c-5.9,0-11.7-0.1-17.3-0.1c0-1.2,0-2.3,0-2.6C431.3,84,436.2,84.8,436.9,83.8z
		 M417.7,79.8c-0.4,2.3-0.6,3.8-0.5,4c0.6,0.7,4.8,0.1,7.5-0.1c0,0.5,0,1.5,0,2.5c-6.6-0.1-13.1-0.1-19.4-0.2c0-1.4,0-6.3,0-7
		C408.7,79.3,414,79.8,417.7,79.8z M382.3,77.5c-0.2,0.9-0.2,1.5,0,1.6c1.2,0.9,9.7,0.1,15.1-0.2c0,1.3,0,6.1,0,6.9
		c-6.7-0.1-13.3-0.2-19.8-0.3c0-2.3,0-8.1,0-9C378.9,76.9,380.7,77.3,382.3,77.5z M357.3,85c0-1.4,0-6.3,0-7
		c5.2,0.4,14.4,1.4,16.4,0.3c0,2.3,0,5.8,0,7.2c-7-0.1-13.9-0.3-20.8-0.5C354.3,85,355.9,85,357.3,85z M334.4,76.2
		c-0.2,1.1-0.3,1.8-0.1,2c0.5,0.4,2.3,0.5,4.6,0.4c0.4,0.1,0.9,0.1,1.4,0.1c0.7,0,1.4-0.1,2-0.3c2.4-0.1,5-0.3,7.1-0.4
		c0,1.3,0,6.2,0,6.9c-5.6-0.1-11.2-0.3-16.9-0.5v-7.7C333.2,76.6,333.8,76.4,334.4,76.2z M315.4,78.2c2.1,0.3,5.2,0.7,7.7,0.8
		c0.9,0.4,2,0.7,3.1,0.7v4.4c-3.6-0.1-7.2-0.2-10.8-0.4C315.4,81.7,315.4,78.8,315.4,78.2z M631.6,87v-6.3c0.7-0.1,1.3-0.3,1.9-0.6
		c1.4,1.6,3.5,2.6,5.8,2.6c2.7,0,5.1-1.4,6.5-3.5c1.7,1,3.7,1.6,6,1.6c1,0,2-0.1,2.9-0.3c1.7,2,4.6,3.3,7.8,3.4v3.2
		c-7.7,0-15.5,0-23.4-0.1C636.5,87,634,87,631.6,87z M1105.6,89.7v-6.4c1.2-0.2,2.3-0.5,3.3-0.9c1.7,1.6,4,2.8,6.6,3.4
		c-0.3,1.4-0.4,2.3-0.2,2.4c1.2,0.9,9.7,0.1,15.1-0.2c0,0.1,0,0.2,0,0.4c-3.8,0.2-7.6,0.4-11.4,0.6
		C1113.4,89.3,1109.7,89.5,1105.6,89.7z M1446.3,89.7c-0.3,1.1-0.6,2-0.8,2.8c-2.7-0.1-5.4-0.2-8.2-0.3c0-1.5,0-2.8,0-3.2
		C1439.8,89.2,1443.2,89.5,1446.3,89.7z M1424,91.2c0.2-0.2,0.2-0.8,0.1-1.8c1.9-0.1,3.8-0.3,5.4-0.3c0,0.5,0,1.7,0,2.8
		c-2.1-0.1-4.2-0.2-6.4-0.3C1423.5,91.5,1423.8,91.3,1424,91.2z M1317.5,81.8c-0.3,1-0.6,1.9-0.9,2.8c0-1.4,0-2.6,0-3
		C1316.9,81.6,1317.2,81.7,1317.5,81.8z"/>
</g>
<g id="Layer_7" class="st0">
	<rect x="470" y="-63" class="st12" width="61" height="50"/>
	<path class="st12" d="M580-153c6,1,25.3,7,21.7,12.5c0.3,7.5,4.7,18.5,0,25S580-103,580-103s-27.3,2-21.7-12.5s-3.7-15.5,0-25
		S574-154,580-153z"/>
	<path class="st12" d="M664-166c6,1,25.3,7,21.7,12.5c0.3,7.5,4.7,18.5,0,25S664-116,664-116s-27.3,2-21.7-12.5s-3.7-15.5,0-25
		S658-167,664-166z"/>
	<path class="st13" d="M930-222c5,0,43.6,156.4,39.3,162.7s-39.3,0-39.3,0s-35.6,4.7-39.3,0S925-222,930-222z"/>
	<path class="st11" d="M743.2-170c2.5,0,22,49.2,19.8,51.2c-1.4,1.3-11.3,0.3-16.7-0.2c0,0.7,0,5.6,0,7c-3.4,0-7.9,0-7.9,0
		s0-5.6,0-7c-5.4,0.3-13.9,1.1-15.1,0.2C721.5-120.3,740.6-170,743.2-170z"/>
	<path class="st11" d="M835.1-186c1.3,0,10.9,66.1,9.8,68.8c-0.7,1.7-5.6,0.3-8.3-0.2c0,0.9,0,7.5,0,9.4c-1.7,0-3.9,0-3.9,0
		s0-7.5,0-9.4c-2.7,0.4-6.9,1.5-7.5,0.2C824.3-119.2,833.8-186,835.1-186z"/>
	<path class="st12" d="M706.8-80c0.6,0,4.9,17.4,4.4,18.1c-0.5,0.7-4.4,0-4.4,0s-4,0.5-4.4,0S706.3-80,706.8-80z"/>
	<path class="st12" d="M711.1-78.9c0.6,0,4.9,17.4,4.4,18.1c-0.5,0.7-4.4,0-4.4,0s-4,0.5-4.4,0S710.6-78.9,711.1-78.9z"/>
	<path class="st12" d="M717.5-80c0.6,0,4.9,17.4,4.4,18.1s-4.4,0-4.4,0s-4,0.5-4.4,0S716.9-80,717.5-80z"/>
	<path class="st12" d="M723.4-78.9c0.6,0,4.9,17.4,4.4,18.1s-4.4,0-4.4,0s-4,0.5-4.4,0S722.8-78.9,723.4-78.9z"/>
	<path class="st12" d="M727.6-84c0.6,0,4.9,20.9,4.4,21.8c-0.5,0.8-4.4,0-4.4,0s-4,0.6-4.4,0S727.1-84,727.6-84z"/>
	<path class="st11" d="M815.8-131.7c0.3-0.7,0.4-1.4,0.4-2.2c0-4.3-4.4-7.7-9.7-7.7c-0.2,0-0.5,0-0.7,0c-1.3-3.1-4.9-5.3-9.2-5.3
		c-5.4,0-9.7,3.5-9.7,7.7c0,0.1,0,0.1,0,0.2c-0.1,0-0.2,0-0.3,0c-3.5,0-6.6,1.5-8.3,3.7c-4.1,0.9-7.2,3.9-7.2,7.4
		c0,4.3,4.4,7.7,9.7,7.7c1,0,2-0.1,2.9-0.3c1.7,2,4.6,3.3,7.8,3.4v7.2h8.1v-10.3c0.9-0.1,1.7-0.3,2.5-0.6c1.8,1.6,4.4,2.6,7.3,2.6
		c5.4,0,9.7-3.5,9.7-7.7C819-128.3,817.7-130.3,815.8-131.7z"/>
</g>
</svg>
