<?xml version="1.0" encoding="utf-8"?>
<!-- Generator: Adobe Illustrator 22.1.0, SVG Export Plug-In . SVG Version: 6.00 Build 0)  -->
<svg version="1.1" id="Layer_1" xmlns="http://www.w3.org/2000/svg" xmlns:xlink="http://www.w3.org/1999/xlink" x="0px" y="0px"
	 viewBox="0 0 100 100" style="enable-background:new 0 0 100 100;" xml:space="preserve">
<style type="text/css">
	.st0{clip-path:url(#SVGID_2_);fill:#F47E20;}
	.st1{clip-path:url(#SVGID_2_);fill:#87D5F7;}
	.st2{clip-path:url(#SVGID_2_);}
	.st3{clip-path:url(#SVGID_2_);fill:#3C6F36;}
	.st4{fill:#668089;}
	.st5{fill:#545F63;}
</style>
<g>
	<defs>
		<rect id="SVGID_1_" x="1.4" y="1.4" width="97.2" height="97.2"/>
	</defs>
	<clipPath id="SVGID_2_">
		<use xlink:href="#SVGID_1_"  style="overflow:visible;"/>
	</clipPath>
	<path class="st0" d="M98.6,50c0,26.8-21.8,48.6-48.6,48.6S1.4,76.8,1.4,50S23.2,1.4,50,1.4S98.6,23.2,98.6,50"/>
	<path class="st1" d="M95.5,50c0,25.1-20.4,45.5-45.5,45.5S4.5,75.1,4.5,50S24.9,4.5,50,4.5S95.5,24.9,95.5,50"/>
	<path class="st2" d="M95.5,50h-0.2c0,12.5-5.1,23.8-13.3,32S62.5,95.3,50,95.3S26.2,90.2,18,82S4.7,62.5,4.7,50S9.8,26.2,18,18
		S37.5,4.7,50,4.7S73.8,9.8,82,18s13.3,19.5,13.3,32H95.5h0.2C95.7,24.8,75.2,4.3,50,4.3C24.8,4.3,4.3,24.8,4.3,50
		S24.8,95.7,50,95.7S95.7,75.2,95.7,50H95.5z"/>
	<path class="st3" d="M92.6,65.9C86.1,83.2,69.5,95.5,50,95.5C30.5,95.5,13.9,83.2,7.4,66C9.8,66,89.3,65.9,92.6,65.9"/>
	<path class="st2" d="M92.6,65.9l-0.2-0.1C86,83.1,69.4,95.3,50,95.3c-19.4,0-36-12.2-42.4-29.4L7.4,66v0.2c2.4,0,81.9,0,85.2,0
		V65.9l-0.2-0.1L92.6,65.9v-0.2c-3.3,0-82.8,0-85.2,0H7.1L7.2,66C13.7,83.3,30.4,95.7,50,95.7c19.6,0,36.3-12.3,42.8-29.6l0.1-0.2
		h-0.3V65.9z"/>
</g>
<polygon class="st4" points="63.9,17.2 50,41.1 50.1,41.1 64,65 36.2,65 36.1,65 63.9,65 91.6,65 77.7,41.1 "/>
<polygon class="st4" points="36.2,17.2 22.3,41.2 8.4,65 36.1,65 50,41.2 50,41.1 "/>
<polygon class="st5" points="50,41.1 50,41.2 36.1,65.1 36.2,65.1 64,65.1 50.1,41.1 "/>
<polygon points="63.9,65.5 63.9,65.1 36.9,65.1 50.4,41.5 63.9,18 77.3,41.5 90.8,65.1 63.9,65.1 63.9,65.5 63.9,66 92.5,66 
	78.2,41 63.9,16.1 49.6,41 35.3,66 63.9,66 "/>
<polygon points="36.2,65.5 36.2,65.1 9.3,65.1 22.7,41.5 36.2,18 49.7,41.5 63.1,65.1 36.2,65.1 36.2,65.5 36.2,66 64.8,66 50.5,41 
	36.2,16.1 21.9,41 7.6,66 36.2,66 "/>
</svg>
